<svg
  data-v-0dd9719b=""
  version="1.0"
  xmlns="http://www.w3.org/2000/svg"
  xmlns:xlink="http://www.w3.org/1999/xlink"
  width="100%"
  height="100%"
  viewBox="0 0 340.000000 250.000000"
  preserveAspectRatio="xMidYMid meet"
  color-interpolation-filters="sRGB"
  style="margin: auto"
>
  <g data-v-0dd9719b="" class="iconmbgsvg">
    <g fill="#000000" hollow-target="textNormalTran">
      <g opacity="0.55" transform="translate(25.10999298095703,0)">
        <g>
          <rect
            fill="#000000"
            fill-opacity="0"
            stroke-width="2"
            x="0"
            y="0"
            width="112.5"
            height="112.49662510124696"
            class="image-rect"
          ></rect>
          <svg
            filter="url(#colors6032057340)"
            x="0"
            y="0"
            width="112.5"
            height="112.49662510124696"
            filtersec="colorsf78608823"
            class="image-svg-svg primary"
            style="overflow: visible"
          >
            <svg
              xmlns="http://www.w3.org/2000/svg"
              viewBox="-0.0004720306897070259 0 32.000938415527344 32"
              x="0px"
              y="0px"
            >
              <title>comedy</title>
              <g>
                <path
                  d="M19,11H3a3.0088,3.0088,0,0,0-3,3v8.68A6.725,6.725,0,0,0,1.07,26.4l.1.16c2.68,3.93,7.22,5.09,9.69,5.43a.985.985,0,0,0,.28,0c2.47-.34,7.01-1.5,9.69-5.42l.1-.16A6.7824,6.7824,0,0,0,22,22.68V14A3.0088,3.0088,0,0,0,19,11ZM6,18v1a1,1,0,0,1-2,0V18a3,3,0,0,1,6,0v1a1,1,0,0,1-2,0V18a1,1,0,0,0-2,0Zm8.8,6.35a4.8825,4.8825,0,0,1-3.8,1.9,4.8846,4.8846,0,0,1-3.8-1.9,1,1,0,1,1,1.6-1.2,2.893,2.893,0,0,0,2.2,1.1,2.8754,2.8754,0,0,0,2.2-1.1,1,1,0,0,1,1.6,1.2ZM18,19a1,1,0,0,1-2,0V18a1,1,0,0,0-2,0v1a1,1,0,0,1-2,0V18a3,3,0,0,1,6,0Z"
                ></path>
                <path
                  d="M30.92,15.41A6.7084,6.7084,0,0,0,32,11.68V3a3.0088,3.0088,0,0,0-3-3H13a3.0088,3.0088,0,0,0-3,3V9h9a4.99,4.99,0,0,1,3.87,1.83,5.0085,5.0085,0,0,1,2.94,1.83,1.0052,1.0052,0,0,1-.22,1.4.9881.9881,0,0,1-.59.19,1,1,0,0,1-.81-.41,2.53,2.53,0,0,0-.21-.24c.01.13.02.26.02.4v6.34a12.6827,12.6827,0,0,0,6.86-4.83M20,7a1,1,0,0,1-2,0V6a1,1,0,0,0-2,0V7a1,1,0,0,1-2,0V6a3,3,0,0,1,6,0Zm8,0a1,1,0,0,1-2,0V6a1,1,0,0,0-2,0V7a1,1,0,0,1-2,0V6a3,3,0,0,1,6,0Z"
                ></path>
              </g>
            </svg>
          </svg>
          <defs>
            <filter id="colors6032057340">
              <feColorMatrix
                type="matrix"
                values="0 0 0 0 0.76171875  0 0 0 0 0.46484375  0 0 0 0 0.875  0 0 0 1 0"
                class="icon-fecolormatrix"
              ></feColorMatrix>
            </filter>
            <filter id="colorsf78608823">
              <feColorMatrix
                type="matrix"
                values="0 0 0 0 0.99609375  0 0 0 0 0.99609375  0 0 0 0 0.99609375  0 0 0 1 0"
                class="icon-fecolormatrix"
              ></feColorMatrix>
            </filter>
            <filter id="colorsb1828248690">
              <feColorMatrix
                type="matrix"
                values="0 0 0 0 0  0 0 0 0 0  0 0 0 0 0  0 0 0 1 0"
                class="icon-fecolormatrix"
              ></feColorMatrix>
            </filter>
          </defs>
        </g>
      </g>
      <g transform="translate(0,22.800312042236328)">
        <g
          data-gra="path-name"
          fill-rule=""
          class="tp-name"
          transform="translate(0,0)"
        >
          <g transform="scale(1)" style="display: none">
            <g>
              <path
                d="M5.21-4.34L5.21-34.28Q5.21-35.54 5.33-36.74 5.45-37.94 5.9-38.89 6.36-39.84 7.24-40.43 8.12-41.02 9.67-41.02L9.67-41.02Q11.34-41.02 12.28-40.43 13.21-39.84 13.65-38.89 14.09-37.94 14.19-36.74 14.3-35.54 14.3-34.28L14.3-34.28 14.3-8.61 20.04-8.61Q21.24-8.61 22.41-8.5 23.58-8.38 24.51-7.94 25.43-7.5 25.99-6.65 26.54-5.8 26.54-4.34L26.54-4.34Q26.54-2.84 25.99-1.98 25.43-1.11 24.51-0.67 23.58-0.23 22.41-0.12 21.24 0 20.04 0L20.04 0 11.72 0Q10.17 0 8.96-0.12 7.76-0.23 6.93-0.67 6.09-1.11 5.65-1.98 5.21-2.84 5.21-4.34L5.21-4.34ZM32.87-6.56L32.87-22.73Q32.87-23.96 33-25.14 33.13-26.31 33.6-27.23 34.07-28.15 34.95-28.73 35.83-29.3 37.32-29.3L37.32-29.3Q38.82-29.3 39.7-28.73 40.58-28.15 41.04-27.23 41.51-26.31 41.65-25.14 41.78-23.96 41.78-22.73L41.78-22.73 41.78-6.56Q41.78-5.33 41.65-4.15 41.51-2.96 41.04-2.04 40.58-1.11 39.7-0.56 38.82 0 37.32 0L37.32 0Q35.83 0 34.95-0.56 34.07-1.11 33.6-2.04 33.13-2.96 33-4.15 32.87-5.33 32.87-6.56L32.87-6.56ZM41.84-36.56L41.84-36.56Q41.84-34.31 40.66-33.21 39.49-32.11 37.38-32.11L37.38-32.11Q35.27-32.11 34.1-33.21 32.93-34.31 32.93-36.56L32.93-36.56Q32.93-38.91 34.1-39.96 35.27-41.02 37.38-41.02L37.38-41.02Q39.64-41.02 40.74-39.96 41.84-38.91 41.84-36.56ZM75-18.87L75-6.68Q75-5.42 74.85-4.22 74.71-3.02 74.22-2.08 73.74-1.14 72.85-0.57 71.95 0 70.43 0L70.43 0Q68.94 0 68.06-0.57 67.18-1.14 66.71-2.08 66.24-3.02 66.11-4.22 65.98-5.42 65.98-6.68L65.98-6.68 65.98-18.11Q65.98-18.93 65.9-19.72 65.83-20.51 65.57-21.11 65.3-21.71 64.79-22.08 64.28-22.44 63.4-22.44L63.4-22.44Q62.2-22.44 61.46-21.65 60.73-20.86 60.31-19.48 59.88-18.11 59.74-16.25 59.59-14.38 59.59-12.25L59.59-12.25 59.59-6.68Q59.59-5.42 59.44-4.22 59.3-3.02 58.81-2.08 58.33-1.14 57.44-0.57 56.54 0 55.02 0L55.02 0Q53.53 0 52.65-0.57 51.77-1.14 51.3-2.08 50.83-3.02 50.7-4.22 50.57-5.42 50.57-6.68L50.57-6.68 50.57-22.68Q50.57-23.94 50.65-25.12 50.74-26.31 51.18-27.23 51.62-28.15 52.51-28.73 53.41-29.3 55.02-29.3L55.02-29.3Q56.63-29.3 57.54-28.75 58.45-28.21 58.9-27.45 59.36-26.69 59.47-25.84 59.59-24.99 59.59-24.38L59.59-24.38Q59.82-25.22 60.32-26.1 60.82-26.98 61.6-27.69 62.37-28.39 63.46-28.84 64.54-29.3 65.98-29.3L65.98-29.3Q67.59-29.3 69.2-28.77 70.81-28.24 72.1-27.01 73.39-25.78 74.19-23.79 75-21.8 75-18.87L75-18.87ZM105.82-18.52L105.82-16.7Q105.82-16.23 105.76-15.6 105.7-14.97 105.31-14.4 104.91-13.83 104.06-13.42 103.21-13.01 101.66-13.01L101.66-13.01 90-13.01 90-10.2Q90-9.49 90.18-8.73 90.35-7.97 90.78-7.32 91.2-6.68 91.9-6.27 92.61-5.86 93.63-5.86L93.63-5.86Q94.8-5.86 95.43-6.14 96.06-6.42 96.43-6.83 96.8-7.24 97.09-7.71 97.38-8.17 97.87-8.58 98.35-8.99 99.21-9.27 100.08-9.55 101.6-9.55L101.6-9.55Q102.33-9.55 103.02-9.43 103.71-9.32 104.24-8.99 104.77-8.67 105.09-8.1 105.41-7.53 105.41-6.62L105.41-6.62Q105.41-4.72 104.21-3.44 103.01-2.17 101.19-1.41 99.38-0.64 97.25-0.32 95.13 0 93.28 0L93.28 0Q90.85-0.03 88.65-0.62 86.46-1.2 84.77-2.49 83.09-3.78 82.09-5.86 81.09-7.94 81.09-10.96L81.09-10.96 81.09-17.81Q81.09-20.6 81.75-22.53 82.41-24.46 83.47-25.75 84.52-27.04 85.84-27.76 87.16-28.48 88.51-28.83 89.85-29.18 91.07-29.27 92.29-29.36 93.16-29.36L93.16-29.36Q96.12-29.36 98.22-28.83 100.31-28.3 101.72-27.45 103.13-26.6 103.95-25.49 104.77-24.38 105.18-23.19 105.59-22 105.7-20.79 105.82-19.57 105.82-18.52L105.82-18.52ZM90-19.45L90-17.4 97.32-17.4Q97.32-18.78 97.25-19.85 97.18-20.92 96.81-21.65 96.45-22.38 95.67-22.76 94.89-23.14 93.46-23.14L93.46-23.14Q92.26-23.14 91.57-22.76 90.88-22.38 90.53-21.81 90.18-21.24 90.09-20.6 90-19.95 90-19.45L90-19.45ZM111.74-10.43L111.74-22.62Q111.74-23.88 111.88-25.08 112.03-26.28 112.51-27.22 113-28.15 113.89-28.73 114.79-29.3 116.31-29.3L116.31-29.3Q117.8-29.3 118.68-28.73 119.56-28.15 120.03-27.22 120.5-26.28 120.63-25.08 120.76-23.88 120.76-22.62L120.76-22.62 120.76-11.19Q120.76-10.34 120.83-9.57 120.91-8.79 121.17-8.19 121.44-7.59 121.95-7.22 122.46-6.86 123.34-6.86L123.34-6.86Q124.51-6.86 125.26-7.65 126.01-8.44 126.43-9.81 126.86-11.19 127-13.05 127.15-14.91 127.15-17.05L127.15-17.05 127.15-22.62Q127.15-23.88 127.29-25.08 127.44-26.28 127.92-27.22 128.41-28.15 129.3-28.73 130.2-29.3 131.72-29.3L131.72-29.3Q133.21-29.3 134.09-28.73 134.97-28.15 135.44-27.22 135.91-26.28 136.04-25.08 136.17-23.88 136.17-22.62L136.17-22.62 136.17-6.62Q136.17-5.36 136.08-4.17 136-2.99 135.56-2.07 135.12-1.14 134.22-0.57 133.33 0 131.72 0L131.72 0Q130.11 0 129.2-0.54 128.29-1.08 127.84-1.85 127.38-2.61 127.27-3.46 127.15-4.31 127.15-4.92L127.15-4.92Q126.91-4.07 126.42-3.19 125.92-2.31 125.14-1.61 124.37-0.91 123.28-0.45 122.2 0 120.76 0L120.76 0Q119.15 0 117.54-0.53 115.93-1.05 114.64-2.29 113.35-3.52 112.54-5.51 111.74-7.5 111.74-10.43L111.74-10.43ZM143.67 5.04L143.67-22.68Q143.67-23.91 143.76-25.09 143.85-26.28 144.29-27.22 144.73-28.15 145.61-28.73 146.48-29.3 148.07-29.3L148.07-29.3Q149.68-29.3 150.59-28.75 151.49-28.21 151.93-27.44 152.37-26.66 152.48-25.81 152.58-24.96 152.58-24.38L152.58-24.38Q152.84-25.22 153.33-26.1 153.81-26.98 154.57-27.69 155.33-28.39 156.4-28.84 157.47-29.3 158.91-29.3L158.91-29.3Q160.52-29.3 162.13-28.77 163.74-28.24 165.03-27.01 166.32-25.78 167.12-23.8 167.93-21.83 167.93-18.93L167.93-18.93 167.93-10.43Q167.93-7.5 167.12-5.52 166.32-3.54 165.03-2.33 163.74-1.11 162.13-0.59 160.52-0.06 158.91-0.06L158.91-0.06Q157.47-0.06 156.4-0.5 155.33-0.94 154.57-1.64 153.81-2.34 153.33-3.22 152.84-4.1 152.58-4.98L152.58-4.98 152.58 5.04Q152.58 6.33 152.45 7.53 152.31 8.73 151.86 9.65 151.41 10.58 150.5 11.15 149.59 11.72 148.07 11.72L148.07 11.72Q146.6 11.72 145.72 11.15 144.84 10.58 144.39 9.65 143.94 8.73 143.8 7.53 143.67 6.33 143.67 5.04L143.67 5.04ZM158.91-11.07L158.91-18.16Q158.91-18.96 158.85-19.72 158.79-20.48 158.53-21.09 158.26-21.71 157.75-22.08 157.24-22.44 156.33-22.44L156.33-22.44Q155.19-22.44 154.47-21.93 153.75-21.42 153.34-20.35 152.93-19.28 152.77-17.64 152.61-16 152.58-13.77L152.58-13.77Q152.58-12.83 152.74-11.65 152.9-10.46 153.31-9.4 153.72-8.35 154.45-7.63 155.19-6.91 156.33-6.91L156.33-6.91Q157.24-6.91 157.75-7.28 158.26-7.65 158.53-8.23 158.79-8.82 158.85-9.57 158.91-10.31 158.91-11.07L158.91-11.07Z"
                transform="translate(-5.210000038146973, 41.02000045776367)"
              ></path>
            </g>
            <!---->
            <!---->
            <!---->
            <!---->
            <!---->
            <!---->
            <!---->
          </g>
        </g>
        <g
          data-gra="path-slogan"
          fill-rule=""
          class="tp-slogan"
          fill="#000000"
          transform="translate(18.79499053955078,58.74000549316406)"
        >
          <!---->
          <!---->
          <g transform="scale(1, 1)" style="display: none">
            <g transform="scale(1)">
              <path
                d="M2.35-3.05L2.35 0L3.36 0L3.36-3.05L5.72-7.87L4.68-7.87L3.67-5.65C3.55-5.36 3.42-5.08 3.29-4.80C3.15-4.52 3.02-4.23 2.88-3.94L2.83-3.94C2.70-4.23 2.57-4.52 2.45-4.80C2.33-5.08 2.20-5.36 2.08-5.65L1.06-7.87L-0.01-7.87ZM9.53 0.14C10.02 0.14 10.48 0.05 10.89-0.14C11.30-0.34 11.66-0.61 11.96-0.97C12.26-1.32 12.49-1.75 12.65-2.26C12.82-2.77 12.90-3.34 12.90-3.97C12.90-4.60 12.82-5.16 12.65-5.66C12.49-6.16 12.26-6.58 11.96-6.93C11.66-7.28 11.30-7.55 10.89-7.73C10.48-7.92 10.02-8.02 9.53-8.02C9.03-8.02 8.58-7.92 8.17-7.74C7.75-7.56 7.40-7.29 7.10-6.94C6.81-6.59 6.58-6.17 6.41-5.67C6.25-5.17 6.17-4.60 6.17-3.97C6.17-3.34 6.25-2.77 6.41-2.26C6.58-1.75 6.81-1.32 7.10-0.97C7.40-0.61 7.75-0.34 8.17-0.14C8.58 0.05 9.03 0.14 9.53 0.14ZM9.53-0.73C9.18-0.73 8.86-0.81 8.57-0.96C8.29-1.11 8.05-1.33 7.84-1.61C7.64-1.90 7.48-2.24 7.37-2.63C7.26-3.03 7.20-3.48 7.20-3.97C7.20-4.46 7.26-4.90 7.37-5.29C7.48-5.68 7.64-6.02 7.84-6.29C8.05-6.56 8.29-6.77 8.57-6.92C8.86-7.07 9.18-7.14 9.53-7.14C9.88-7.14 10.20-7.07 10.48-6.92C10.77-6.77 11.01-6.56 11.21-6.29C11.42-6.02 11.58-5.68 11.69-5.29C11.80-4.90 11.86-4.46 11.86-3.97C11.86-3.48 11.80-3.03 11.69-2.63C11.58-2.24 11.42-1.90 11.21-1.61C11.01-1.33 10.77-1.11 10.48-0.96C10.20-0.81 9.88-0.73 9.53-0.73ZM14.56-7.87L14.56-3.25C14.56-2.62 14.63-2.09 14.77-1.66C14.92-1.22 15.11-0.87 15.37-0.61C15.62-0.34 15.92-0.15 16.27-0.03C16.61 0.09 16.99 0.14 17.39 0.14C17.79 0.14 18.16 0.09 18.50-0.03C18.85-0.15 19.15-0.34 19.40-0.61C19.65-0.87 19.85-1.22 19.99-1.66C20.14-2.09 20.21-2.62 20.21-3.25L20.21-7.87L19.25-7.87L19.25-3.23C19.25-2.76 19.20-2.36 19.10-2.04C19.01-1.72 18.88-1.46 18.71-1.27C18.54-1.08 18.34-0.94 18.12-0.86C17.90-0.77 17.65-0.73 17.39-0.73C17.13-0.73 16.89-0.77 16.67-0.86C16.44-0.94 16.25-1.08 16.09-1.27C15.92-1.46 15.79-1.72 15.70-2.04C15.60-2.36 15.55-2.76 15.55-3.23L15.55-7.87ZM23.33-4.14L23.33-7.07L24.65-7.07C25.26-7.07 25.74-6.96 26.06-6.76C26.39-6.55 26.56-6.18 26.56-5.66C26.56-5.15 26.39-4.77 26.06-4.52C25.74-4.27 25.26-4.14 24.65-4.14ZM26.65 0L27.78 0L25.79-3.43C26.32-3.57 26.75-3.82 27.07-4.19C27.39-4.56 27.55-5.05 27.55-5.66C27.55-6.07 27.48-6.42 27.35-6.70C27.21-6.98 27.02-7.20 26.78-7.38C26.53-7.56 26.24-7.68 25.90-7.76C25.56-7.83 25.19-7.87 24.79-7.87L22.33-7.87L22.33 0L23.33 0L23.33-3.32L24.76-3.32ZM31.75-1.72L31.15-1.02C31.50-0.66 31.90-0.38 32.38-0.17C32.85 0.04 33.36 0.14 33.91 0.14C34.33 0.14 34.70 0.09 35.03-0.03C35.36-0.15 35.64-0.31 35.87-0.51C36.10-0.71 36.28-0.95 36.40-1.22C36.53-1.50 36.59-1.79 36.59-2.10C36.59-2.39 36.55-2.64 36.46-2.86C36.38-3.08 36.26-3.27 36.12-3.44C35.98-3.60 35.80-3.75 35.60-3.87C35.40-3.99 35.19-4.10 34.97-4.20L33.85-4.68C33.69-4.74 33.54-4.81 33.38-4.89C33.23-4.97 33.09-5.05 32.96-5.15C32.84-5.25 32.73-5.37 32.66-5.50C32.58-5.63 32.54-5.80 32.54-5.99C32.54-6.35 32.68-6.63 32.95-6.83C33.21-7.04 33.57-7.14 34.01-7.14C34.38-7.14 34.71-7.07 35.00-6.94C35.29-6.81 35.56-6.63 35.80-6.40L36.34-7.04C36.06-7.33 35.72-7.57 35.32-7.75C34.92-7.93 34.48-8.02 34.01-8.02C33.65-8.02 33.32-7.96 33.02-7.86C32.72-7.76 32.46-7.61 32.24-7.42C32.02-7.23 31.85-7.01 31.72-6.76C31.60-6.50 31.54-6.22 31.54-5.93C31.54-5.64 31.58-5.39 31.68-5.17C31.78-4.95 31.90-4.76 32.05-4.60C32.20-4.44 32.38-4.30 32.57-4.19C32.76-4.08 32.95-3.98 33.13-3.90L34.26-3.41C34.44-3.32 34.62-3.24 34.78-3.16C34.94-3.08 35.07-2.99 35.19-2.89C35.31-2.79 35.40-2.67 35.47-2.53C35.53-2.39 35.57-2.22 35.57-2.02C35.57-1.63 35.42-1.32 35.14-1.09C34.85-0.85 34.44-0.73 33.92-0.73C33.52-0.73 33.12-0.82 32.74-1.00C32.36-1.18 32.03-1.42 31.75-1.72ZM38.14-7.87L38.14 0L39.13 0L39.13-3.71L42.79-3.71L42.79 0L43.80 0L43.80-7.87L42.79-7.87L42.79-4.57L39.13-4.57L39.13-7.87ZM48.86 0.14C49.36 0.14 49.81 0.05 50.23-0.14C50.64-0.34 50.99-0.61 51.29-0.97C51.59-1.32 51.83-1.75 51.99-2.26C52.15-2.77 52.24-3.34 52.24-3.97C52.24-4.60 52.15-5.16 51.99-5.66C51.83-6.16 51.59-6.58 51.29-6.93C50.99-7.28 50.64-7.55 50.23-7.73C49.81-7.92 49.36-8.02 48.86-8.02C48.37-8.02 47.91-7.92 47.50-7.74C47.09-7.56 46.74-7.29 46.44-6.94C46.14-6.59 45.91-6.17 45.75-5.67C45.59-5.17 45.50-4.60 45.50-3.97C45.50-3.34 45.59-2.77 45.75-2.26C45.91-1.75 46.14-1.32 46.44-0.97C46.74-0.61 47.09-0.34 47.50-0.14C47.91 0.05 48.37 0.14 48.86 0.14ZM48.86-0.73C48.51-0.73 48.19-0.81 47.91-0.96C47.63-1.11 47.38-1.33 47.18-1.61C46.97-1.90 46.82-2.24 46.70-2.63C46.59-3.03 46.54-3.48 46.54-3.97C46.54-4.46 46.59-4.90 46.70-5.29C46.82-5.68 46.97-6.02 47.18-6.29C47.38-6.56 47.63-6.77 47.91-6.92C48.19-7.07 48.51-7.14 48.86-7.14C49.22-7.14 49.53-7.07 49.82-6.92C50.10-6.77 50.35-6.56 50.55-6.29C50.75-6.02 50.91-5.68 51.02-5.29C51.14-4.90 51.19-4.46 51.19-3.97C51.19-3.48 51.14-3.03 51.02-2.63C50.91-2.24 50.75-1.90 50.55-1.61C50.35-1.33 50.10-1.11 49.82-0.96C49.53-0.81 49.22-0.73 48.86-0.73ZM53.05-7.87L54.72 0L55.91 0L57.07-4.74C57.14-5.04 57.20-5.34 57.27-5.63C57.34-5.93 57.40-6.22 57.47-6.53L57.52-6.53C57.58-6.22 57.64-5.93 57.70-5.63C57.76-5.34 57.83-5.04 57.90-4.74L59.09 0L60.29 0L61.92-7.87L60.96-7.87L60.13-3.59C60.05-3.16 59.98-2.74 59.90-2.32C59.83-1.90 59.76-1.48 59.69-1.04L59.64-1.04C59.54-1.48 59.45-1.90 59.35-2.33C59.26-2.75 59.16-3.17 59.06-3.59L57.97-7.87L57.06-7.87L55.97-3.59C55.88-3.16 55.79-2.74 55.69-2.32C55.60-1.90 55.50-1.48 55.42-1.04L55.37-1.04C55.30-1.48 55.22-1.90 55.14-2.32C55.06-2.73 54.98-3.16 54.91-3.59L54.08-7.87ZM63.24-1.72L62.64-1.02C62.98-0.66 63.39-0.38 63.86-0.17C64.34 0.04 64.85 0.14 65.40 0.14C65.82 0.14 66.19 0.09 66.52-0.03C66.84-0.15 67.12-0.31 67.36-0.51C67.59-0.71 67.77-0.95 67.89-1.22C68.01-1.50 68.08-1.79 68.08-2.10C68.08-2.39 68.03-2.64 67.95-2.86C67.87-3.08 67.75-3.27 67.61-3.44C67.46-3.60 67.29-3.75 67.09-3.87C66.89-3.99 66.68-4.10 66.46-4.20L65.34-4.68C65.18-4.74 65.02-4.81 64.87-4.89C64.72-4.97 64.58-5.05 64.45-5.15C64.32-5.25 64.22-5.37 64.15-5.50C64.07-5.63 64.03-5.80 64.03-5.99C64.03-6.35 64.17-6.63 64.43-6.83C64.70-7.04 65.06-7.14 65.50-7.14C65.86-7.14 66.19-7.07 66.49-6.94C66.78-6.81 67.04-6.63 67.28-6.40L67.82-7.04C67.54-7.33 67.20-7.57 66.80-7.75C66.40-7.93 65.97-8.02 65.50-8.02C65.14-8.02 64.81-7.96 64.51-7.86C64.21-7.76 63.95-7.61 63.73-7.42C63.51-7.23 63.33-7.01 63.21-6.76C63.09-6.50 63.02-6.22 63.02-5.93C63.02-5.64 63.07-5.39 63.17-5.17C63.26-4.95 63.39-4.76 63.54-4.60C63.69-4.44 63.86-4.30 64.06-4.19C64.25-4.08 64.44-3.98 64.62-3.90L65.75-3.41C65.93-3.32 66.10-3.24 66.26-3.16C66.42-3.08 66.56-2.99 66.68-2.89C66.79-2.79 66.89-2.67 66.95-2.53C67.02-2.39 67.06-2.22 67.06-2.02C67.06-1.63 66.91-1.32 66.62-1.09C66.34-0.85 65.93-0.73 65.41-0.73C65.00-0.73 64.61-0.82 64.23-1.00C63.85-1.18 63.52-1.42 63.24-1.72ZM69.32-0.60C69.32-0.38 69.39-0.21 69.53-0.07C69.67 0.07 69.84 0.14 70.04 0.14C70.24 0.14 70.40 0.07 70.54-0.07C70.68-0.21 70.75-0.38 70.75-0.60C70.75-0.83 70.68-1.02 70.54-1.16C70.40-1.30 70.24-1.37 70.04-1.37C69.84-1.37 69.67-1.30 69.53-1.16C69.39-1.02 69.32-0.83 69.32-0.60ZM75.04-7.87L75.04 0L76.03 0L76.03-7.87ZM78.19-7.87L78.19 0L79.14 0L79.14-4.12C79.14-4.53 79.13-4.95 79.10-5.36C79.07-5.77 79.04-6.18 79.01-6.58L79.06-6.58L79.91-4.96L82.76 0L83.80 0L83.80-7.87L82.85-7.87L82.85-3.80C82.85-3.39 82.86-2.97 82.89-2.54C82.92-2.11 82.94-1.70 82.97-1.30L82.92-1.30L82.07-2.93L79.22-7.87ZM91.28 0.14C91.78 0.14 92.23 0.05 92.65-0.14C93.06-0.34 93.41-0.61 93.71-0.97C94.01-1.32 94.25-1.75 94.41-2.26C94.57-2.77 94.66-3.34 94.66-3.97C94.66-4.60 94.57-5.16 94.41-5.66C94.25-6.16 94.01-6.58 93.71-6.93C93.41-7.28 93.06-7.55 92.65-7.73C92.23-7.92 91.78-8.02 91.28-8.02C90.79-8.02 90.33-7.92 89.92-7.74C89.51-7.56 89.16-7.29 88.86-6.94C88.56-6.59 88.33-6.17 88.17-5.67C88.01-5.17 87.92-4.60 87.92-3.97C87.92-3.34 88.01-2.77 88.17-2.26C88.33-1.75 88.56-1.32 88.86-0.97C89.16-0.61 89.51-0.34 89.92-0.14C90.33 0.05 90.79 0.14 91.28 0.14ZM91.28-0.73C90.93-0.73 90.61-0.81 90.33-0.96C90.05-1.11 89.80-1.33 89.60-1.61C89.39-1.90 89.24-2.24 89.12-2.63C89.01-3.03 88.96-3.48 88.96-3.97C88.96-4.46 89.01-4.90 89.12-5.29C89.24-5.68 89.39-6.02 89.60-6.29C89.80-6.56 90.05-6.77 90.33-6.92C90.61-7.07 90.93-7.14 91.28-7.14C91.64-7.14 91.95-7.07 92.24-6.92C92.52-6.77 92.77-6.56 92.97-6.29C93.17-6.02 93.33-5.68 93.44-5.29C93.56-4.90 93.61-4.46 93.61-3.97C93.61-3.48 93.56-3.03 93.44-2.63C93.33-2.24 93.17-1.90 92.97-1.61C92.77-1.33 92.52-1.11 92.24-0.96C91.95-0.81 91.64-0.73 91.28-0.73ZM97.34-4.14L97.34-7.07L98.66-7.07C99.28-7.07 99.75-6.96 100.08-6.76C100.41-6.55 100.57-6.18 100.57-5.66C100.57-5.15 100.41-4.77 100.08-4.52C99.75-4.27 99.28-4.14 98.66-4.14ZM100.67 0L101.80 0L99.80-3.43C100.34-3.57 100.77-3.82 101.09-4.19C101.41-4.56 101.57-5.05 101.57-5.66C101.57-6.07 101.50-6.42 101.36-6.70C101.23-6.98 101.04-7.20 100.79-7.38C100.55-7.56 100.26-7.68 99.92-7.76C99.58-7.83 99.21-7.87 98.81-7.87L96.35-7.87L96.35 0L97.34 0L97.34-3.32L98.77-3.32ZM103.32-7.87L103.32 0L105.34 0C105.93 0 106.45-0.09 106.91-0.27C107.36-0.45 107.75-0.71 108.06-1.05C108.37-1.39 108.61-1.81 108.77-2.30C108.93-2.79 109.01-3.35 109.01-3.97C109.01-5.23 108.69-6.19 108.06-6.86C107.43-7.54 106.50-7.87 105.29-7.87ZM105.22-0.82L104.32-0.82L104.32-7.06L105.22-7.06C106.14-7.06 106.83-6.79 107.29-6.26C107.75-5.74 107.98-4.97 107.98-3.97C107.98-2.97 107.75-2.20 107.29-1.64C106.83-1.09 106.14-0.82 105.22-0.82ZM110.70-7.87L110.70 0L115.36 0L115.36-0.85L111.70-0.85L111.70-3.71L114.68-3.71L114.68-4.56L111.70-4.56L111.70-7.03L115.24-7.03L115.24-7.87ZM118.02-4.14L118.02-7.07L119.34-7.07C119.96-7.07 120.43-6.96 120.76-6.76C121.08-6.55 121.25-6.18 121.25-5.66C121.25-5.15 121.08-4.77 120.76-4.52C120.43-4.27 119.96-4.14 119.34-4.14ZM121.34 0L122.47 0L120.48-3.43C121.02-3.57 121.44-3.82 121.76-4.19C122.08-4.56 122.24-5.05 122.24-5.66C122.24-6.07 122.18-6.42 122.04-6.70C121.90-6.98 121.71-7.20 121.47-7.38C121.23-7.56 120.93-7.68 120.59-7.76C120.25-7.83 119.88-7.87 119.48-7.87L117.02-7.87L117.02 0L118.02 0L118.02-3.32L119.45-3.32ZM123.70-0.60C123.70-0.38 123.77-0.21 123.91-0.07C124.05 0.07 124.22 0.14 124.42 0.14C124.61 0.14 124.77 0.07 124.91-0.07C125.05-0.21 125.12-0.38 125.12-0.60C125.12-0.83 125.05-1.02 124.91-1.16C124.77-1.30 124.61-1.37 124.42-1.37C124.22-1.37 124.05-1.30 123.91-1.16C123.77-1.02 123.70-0.83 123.70-0.60Z"
                transform="translate(0.012, 8.016)"
              ></path>
            </g>
          </g>
        </g>
      </g>
    </g>
  </g>
</svg>
